# xmcd
#
# Track frame offsets:
#	150
#	10021
#	19994
#	31073
#	44350
#	54895
#	66865
#	77999
#	88506
#	98829
#	110654
#	121891
#	136785
#	147722
#	160369
#	170385
#	183726
#	193793
#	203438
#	216802
#
# Disc length: 3060 seconds
#
# Revision: 1
# Processed by: cddbd v1.5.2PL0 Copyright (c) Steve Scherf et al.
# Submitted via: audiograbber 1.83.01
#
DISCID=140bf214
DTITLE=Artisti Vari - Country and Western Ladies [CD06)
DYEAR=2014
DGENRE=Country
TTITLE0=Skeeter Davis - I'm Going Steady With A Heartache
TTITLE1=Patsy Cline - Turn The Cards Slowly
TTITLE2=Jean Shepard - Shadows On The Wall
TTITLE3=Patsy Montana - Cowboy Rhythm
TTITLE4=Wilma Lee and Stoney Cooper - There's A Big Wheel
TTITLE5=Kitty Wells - Repenting
TTITLE6=The Maddox Brothers and Rose - I Could Never Stop Loving You
TTITLE7=Jean Shepard - I Learned It All From You
TTITLE8=Wanda Jackson - Making Believe
TTITLE9=Goldie Hill - Iìm The Loneliest Gal In Town
TTITLE10=The Girls Of The Golden West - Round-Up Time In Texas
TTITLE11=Patsy Montana - The Whhel Of The Wagon Is Broken
TTITLE12=Jean Shepard - A Passing Love Afair
TTITLE13=Kitty Wells - I'll Always Be Your Fraulein
TTITLE14=The Maddox Brothers and Rose - Fountain Of Youth
TTITLE15=Goldie Hill - I'm Yesterday's Girl
TTITLE16=Skeeter Davis - Walk Softly Darling
TTITLE17=Patsy Cline - I'm Moving Along
TTITLE18=Rose Lee and Joe Maphis - Dim Lights, Thick Smoke
TTITLE19=Patsy Montana - I Only Want A Buddy, Not A Sweetheart
EXTD=
EXTT0=
EXTT1=
EXTT2=
EXTT3=
EXTT4=
EXTT5=
EXTT6=
EXTT7=
EXTT8=
EXTT9=
EXTT10=
EXTT11=
EXTT12=
EXTT13=
EXTT14=
EXTT15=
EXTT16=
EXTT17=
EXTT18=
EXTT19=
PLAYORDER=
